<?xml version="1.0" encoding="utf-8"?>
<!-- Generator: Adobe Illustrator 24.0.1, SVG Export Plug-In . SVG Version: 6.00 Build 0)  -->
<svg version="1.1" id="Layer_1" xmlns="http://www.w3.org/2000/svg" xmlns:xlink="http://www.w3.org/1999/xlink" x="0px" y="0px"
	 viewBox="0 0 310 167" style="enable-background:new 0 0 310 167;" xml:space="preserve">
<style type="text/css">
	.st0{fill:url(#SVGID_1_);}
	.st1{fill:url(#SVGID_2_);}
	.st2{fill:url(#SVGID_3_);}
	.st3{fill:url(#SVGID_4_);}
	.st4{fill:url(#SVGID_5_);}
	.st5{fill:url(#SVGID_6_);}
	.st6{fill:url(#SVGID_7_);}
	.st7{opacity:0.4438;fill:url(#path1894_1_);enable-background:new    ;}
</style>
<g id="horizontal_1_">
	<g>
		<linearGradient id="SVGID_1_" gradientUnits="userSpaceOnUse" x1="76.1296" y1="98.0011" x2="76.1296" y2="142.9875">
			<stop  offset="0" style="stop-color:#CCD3D6"/>
			<stop  offset="0.2622" style="stop-color:#D4D9DB"/>
			<stop  offset="1" style="stop-color:#E6E6E6"/>
		</linearGradient>
		<path class="st0" d="M78.9,136.6c-3.6,0-6.7-0.9-9.4-2.6c-2.7-1.7-4.9-3.9-6.5-6.6v26.4h-9.4V91.2h8.2v8c1.7-2.7,3.9-4.8,6.6-6.4
			c2.7-1.6,5.7-2.4,9.1-2.4c3.1,0,5.9,0.6,8.4,1.9c2.6,1.2,4.8,2.9,6.6,5c1.9,2.1,3.3,4.5,4.4,7.3c1,2.8,1.6,5.7,1.6,8.8
			c0,3.2-0.5,6.3-1.4,9.1s-2.3,5.2-4.1,7.3c-1.8,2.1-3.8,3.7-6.3,4.9C84.4,136,81.8,136.6,78.9,136.6z M75.8,128.6
			c2,0,3.8-0.4,5.4-1.3c1.6-0.9,3-2,4.2-3.4c1.2-1.4,2.1-3,2.7-4.8c0.6-1.8,0.9-3.7,0.9-5.6c0-2-0.4-4-1.1-5.8
			c-0.7-1.8-1.7-3.4-2.9-4.8c-1.2-1.4-2.7-2.4-4.4-3.2c-1.7-0.8-3.5-1.2-5.5-1.2c-1.2,0-2.4,0.2-3.7,0.7c-1.3,0.5-2.5,1.1-3.7,1.9
			c-1.1,0.8-2.1,1.7-3,2.8c-0.9,1-1.4,2.2-1.8,3.4v11.7c0.6,1.4,1.3,2.6,2.2,3.8c0.9,1.2,1.9,2.2,3,3.1c1.1,0.9,2.3,1.5,3.6,2
			C73.1,128.3,74.5,128.6,75.8,128.6z"/>
		<linearGradient id="SVGID_2_" gradientUnits="userSpaceOnUse" x1="122.051" y1="98.9789" x2="122.051" y2="143.4545">
			<stop  offset="0" style="stop-color:#CCD3D6"/>
			<stop  offset="0.2622" style="stop-color:#D4D9DB"/>
			<stop  offset="1" style="stop-color:#E6E6E6"/>
		</linearGradient>
		<path class="st1" d="M106.2,146.2c0.9,0.2,1.7,0.3,2.5,0.4c0.8,0.1,1.5,0.2,2,0.2c0.7,0,1.4-0.2,1.9-0.5c0.5-0.3,1.1-0.9,1.7-1.7
			c0.6-0.8,1.1-1.9,1.7-3.4c0.6-1.4,1.3-3.3,2.1-5.6L99.8,91.2h9.6l13.8,36.2l12.2-36.2h8.8L124.1,146c-0.9,2.6-2.5,4.7-4.7,6.4
			c-2.2,1.7-5.1,2.6-8.6,2.6c-0.7,0-1.4,0-2.1-0.1c-0.7-0.1-1.6-0.3-2.5-0.6V146.2z"/>
		<linearGradient id="SVGID_3_" gradientUnits="userSpaceOnUse" x1="174.3498" y1="79.2137" x2="174.3498" y2="131.3436">
			<stop  offset="0" style="stop-color:#CCD3D6"/>
			<stop  offset="0.2622" style="stop-color:#D4D9DB"/>
			<stop  offset="1" style="stop-color:#E6E6E6"/>
		</linearGradient>
		<path class="st2" d="M148.3,105.1c0-3.6,0.6-7.2,1.9-10.8c1.3-3.6,3.1-6.8,5.6-9.7c2.4-2.8,5.4-5.1,9-6.9
			c3.6-1.8,7.6-2.7,12.2-2.7c5.4,0,10,1.2,13.8,3.7c3.8,2.4,6.6,5.6,8.5,9.5l-4.7,2.9c-1-2-2.1-3.7-3.5-5c-1.4-1.4-2.9-2.5-4.5-3.3
			c-1.6-0.9-3.2-1.5-4.9-1.8c-1.7-0.4-3.4-0.6-5-0.6c-3.6,0-6.8,0.7-9.6,2.2c-2.8,1.5-5.1,3.4-7,5.8c-1.9,2.4-3.3,5.1-4.3,8
			c-1,3-1.4,6-1.4,9.1c0,3.3,0.6,6.5,1.7,9.6c1.2,3.1,2.7,5.8,4.8,8.1c2,2.4,4.4,4.2,7.1,5.6c2.8,1.4,5.7,2.1,9,2.1
			c1.7,0,3.4-0.2,5.2-0.6c1.8-0.4,3.5-1.1,5.2-2c1.7-0.9,3.2-2.1,4.6-3.5c1.4-1.4,2.6-3.1,3.6-5.1l4.9,2.6c-1,2.3-2.3,4.3-4.1,6
			c-1.8,1.7-3.7,3.2-5.9,4.4c-2.2,1.2-4.4,2.1-6.8,2.7c-2.4,0.6-4.8,0.9-7.1,0.9c-4.1,0-7.9-0.9-11.4-2.7c-3.5-1.8-6.4-4.2-8.9-7.1
			c-2.5-2.9-4.4-6.2-5.8-9.9C149,112.7,148.3,109,148.3,105.1z"/>
		<linearGradient id="SVGID_4_" gradientUnits="userSpaceOnUse" x1="231.2399" y1="84.9193" x2="231.2399" y2="127.8647">
			<stop  offset="0" style="stop-color:#CCD3D6"/>
			<stop  offset="0.2622" style="stop-color:#D4D9DB"/>
			<stop  offset="1" style="stop-color:#E6E6E6"/>
		</linearGradient>
		<path class="st3" d="M209.8,135.7V75.3h25c2.6,0,5,0.6,7.2,1.7c2.2,1.1,4.1,2.6,5.7,4.3c1.6,1.8,2.8,3.8,3.7,6.1
			c0.9,2.3,1.4,4.6,1.4,6.9c0,2.5-0.4,4.9-1.3,7.2c-0.9,2.3-2,4.3-3.6,6.1c-1.5,1.8-3.4,3.2-5.5,4.3c-2.1,1.1-4.5,1.6-7.1,1.6h-19.6
			v22.3H209.8z M215.7,108.2H235c1.8,0,3.4-0.4,4.8-1.1c1.4-0.8,2.7-1.8,3.7-3.1s1.8-2.7,2.4-4.4c0.6-1.7,0.9-3.4,0.9-5.2
			c0-1.9-0.3-3.6-1-5.3c-0.7-1.7-1.5-3.1-2.6-4.4c-1.1-1.2-2.4-2.2-3.9-2.9c-1.5-0.7-3.1-1.1-4.7-1.1h-18.8V108.2z"/>
		<linearGradient id="SVGID_5_" gradientUnits="userSpaceOnUse" x1="285.6213" y1="79.9714" x2="285.6213" y2="127.5935">
			<stop  offset="0" style="stop-color:#CCD3D6"/>
			<stop  offset="0.2622" style="stop-color:#D4D9DB"/>
			<stop  offset="1" style="stop-color:#E6E6E6"/>
		</linearGradient>
		<path class="st4" d="M309.4,75.3v60.4h-5.9v-28.2h-35.8v28.2h-6V75.3h6v26.9h35.8V75.3H309.4z"/>
	</g>
	<g id="icon_2_">
		<linearGradient id="SVGID_6_" gradientUnits="userSpaceOnUse" x1="47.2483" y1="111.8358" x2="-9.739824e-02" y2="64.4901">
			<stop  offset="0" style="stop-color:#5A9FD4"/>
			<stop  offset="1" style="stop-color:#306998"/>
		</linearGradient>
		<path class="st5" d="M51.7,103.5c-5.1,0-9.7,2-13.1,5.2V88.4c0-7.3,5.9-13.2,13.2-13.2h6.1L26,43.4C11.2,48.5,1.4,62.2,1.3,79.2
			c-0.1,19.3,12,33.8,29.8,36.9c-3.4,3.5-5.4,8.2-5.4,13.4c0,7,3.8,13.2,9.5,16.5c5.7-3.3,9.5-9.5,9.5-16.5c0-3.6-1-6.9-2.7-9.8
			c2.9,1.7,6.2,2.7,9.8,2.7c7,0,13.2-3.8,16.5-9.5C64.9,107.3,58.7,103.5,51.7,103.5z"/>
		<linearGradient id="SVGID_7_" gradientUnits="userSpaceOnUse" x1="50.3433" y1="10.2481" x2="111.1154" y2="71.0202">
			<stop  offset="0" style="stop-color:#FFD43B"/>
			<stop  offset="1" style="stop-color:#FFE873"/>
		</linearGradient>
		<path class="st6" d="M114.6,37.5c-0.1-21.6-16.7-37-38.3-37c-21.7,0-37.3,15.6-37.3,37.3h46.2v3.4H39c-3.2,0-6.3,0.4-9.2,1l33,33
			h38.7c7.3,0,13.2-5.9,13.2-13.2V39.5L114.6,37.5z M59,29.5c-3.2,0-5.8-2.6-5.8-5.8s2.6-5.8,5.8-5.8s5.8,2.6,5.8,5.8
			S62.2,29.5,59,29.5z"/>
		
			<radialGradient id="path1894_1_" cx="-861.555" cy="280.9534" r="27.2538" gradientTransform="matrix(1.749057e-08 -0.2399 -1.0547 -3.791546e-07 330.6047 -46.7668)" gradientUnits="userSpaceOnUse">
			<stop  offset="0" style="stop-color:#B8B8B8;stop-opacity:0.498"/>
			<stop  offset="1" style="stop-color:#7F7F7F;stop-opacity:0"/>
		</radialGradient>
		<path id="path1894_4_" class="st7" d="M68,160c0,3.6-15.1,6.5-33.7,6.5S0.6,163.6,0.6,160c0-3.6,15.1-6.5,33.7-6.5
			S68,156.3,68,160z"/>
	</g>
</g>
</svg>
