<?xml version="1.0" encoding="utf-8"?>
<!-- Generator: Adobe Illustrator 24.0.1, SVG Export Plug-In . SVG Version: 6.00 Build 0)  -->
<svg version="1.1" id="Layer_1" xmlns="http://www.w3.org/2000/svg" xmlns:xlink="http://www.w3.org/1999/xlink" x="0px" y="0px"
	 viewBox="0 0 145 205" style="enable-background:new 0 0 145 205;" xml:space="preserve">
<style type="text/css">
	.st0{fill:url(#SVGID_1_);}
	.st1{fill:url(#SVGID_2_);}
	.st2{fill:url(#SVGID_3_);}
	.st3{fill:url(#SVGID_4_);}
	.st4{fill:url(#SVGID_5_);}
	.st5{display:none;}
	.st6{display:inline;}
	.st7{fill:#646464;}
	.st8{fill:url(#SVGID_6_);}
	.st9{fill:url(#SVGID_7_);}
	.st10{opacity:0.4438;fill:url(#path1894_1_);enable-background:new    ;}
</style>
<g id="vertical_1_">
	<g>
		<linearGradient id="SVGID_1_" gradientUnits="userSpaceOnUse" x1="52.8118" y1="166.1349" x2="52.8118" y2="201.4647">
			<stop  offset="0" style="stop-color:#CCD3D6"/>
			<stop  offset="1" style="stop-color:#E6E6E6"/>
		</linearGradient>
		<path class="st0" d="M35.1,183.4c0-2.5,0.4-4.9,1.3-7.3c0.9-2.4,2.1-4.6,3.8-6.5c1.7-1.9,3.7-3.5,6.1-4.7c2.4-1.2,5.2-1.8,8.2-1.8
			c3.7,0,6.8,0.8,9.4,2.5c2.6,1.7,4.5,3.8,5.7,6.5l-3.2,2c-0.7-1.3-1.5-2.5-2.4-3.4c-0.9-0.9-2-1.7-3-2.2c-1.1-0.6-2.2-1-3.3-1.2
			c-1.2-0.2-2.3-0.4-3.4-0.4c-2.5,0-4.6,0.5-6.5,1.5c-1.9,1-3.5,2.3-4.8,3.9c-1.3,1.6-2.3,3.4-2.9,5.4c-0.7,2-1,4.1-1,6.1
			c0,2.3,0.4,4.4,1.2,6.5c0.8,2.1,1.9,3.9,3.2,5.5c1.4,1.6,3,2.9,4.8,3.8c1.9,0.9,3.9,1.4,6.1,1.4c1.2,0,2.3-0.1,3.5-0.4
			c1.2-0.3,2.4-0.7,3.5-1.4c1.1-0.6,2.2-1.4,3.1-2.4c1-0.9,1.8-2.1,2.4-3.4l3.3,1.7c-0.7,1.5-1.6,2.9-2.8,4.1c-1.2,1.2-2.5,2.2-4,3
			c-1.5,0.8-3,1.4-4.6,1.8c-1.6,0.4-3.2,0.6-4.8,0.6c-2.8,0-5.4-0.6-7.7-1.8c-2.3-1.2-4.4-2.8-6.1-4.8c-1.7-2-3-4.2-3.9-6.7
			C35.6,188.6,35.1,186,35.1,183.4z"/>
		<linearGradient id="SVGID_2_" gradientUnits="userSpaceOnUse" x1="91.3676" y1="167.6093" x2="91.3676" y2="196.7144">
			<stop  offset="0" style="stop-color:#CCD3D6"/>
			<stop  offset="1" style="stop-color:#E6E6E6"/>
		</linearGradient>
		<path class="st1" d="M76.8,204.2v-40.9h16.9c1.8,0,3.4,0.4,4.9,1.1c1.5,0.7,2.8,1.7,3.8,2.9c1.1,1.2,1.9,2.6,2.5,4.1
			c0.6,1.5,0.9,3.1,0.9,4.7c0,1.7-0.3,3.3-0.9,4.9c-0.6,1.6-1.4,2.9-2.4,4.1c-1,1.2-2.3,2.2-3.7,2.9c-1.4,0.7-3,1.1-4.8,1.1H80.8
			v15.1H76.8z M80.8,185.5h13.1c1.2,0,2.3-0.3,3.3-0.8c1-0.5,1.8-1.2,2.5-2.1c0.7-0.9,1.2-1.9,1.6-3c0.4-1.1,0.6-2.3,0.6-3.5
			c0-1.3-0.2-2.5-0.7-3.6c-0.4-1.1-1-2.1-1.8-3c-0.7-0.8-1.6-1.5-2.7-2c-1-0.5-2.1-0.7-3.2-0.7H80.8V185.5z"/>
		<linearGradient id="SVGID_3_" gradientUnits="userSpaceOnUse" x1="128.2232" y1="167.6093" x2="128.2232" y2="199.8839">
			<stop  offset="0" style="stop-color:#CCD3D6"/>
			<stop  offset="1" style="stop-color:#E6E6E6"/>
		</linearGradient>
		<path class="st2" d="M144.4,163.2v40.9h-4V185h-24.3v19.1h-4v-40.9h4v18.2h24.3v-18.2H144.4z"/>
	</g>
	<g>
		<linearGradient id="SVGID_4_" gradientUnits="userSpaceOnUse" x1="76.2014" y1="99.1797" x2="76.2014" y2="144.166">
			<stop  offset="0" style="stop-color:#CCD3D6"/>
			<stop  offset="1" style="stop-color:#E6E6E6"/>
		</linearGradient>
		<path class="st3" d="M79,136.6c-3.6,0-6.7-0.9-9.4-2.6c-2.7-1.7-4.9-3.9-6.5-6.6v26.4h-9.4V91.2H62v8c1.7-2.7,3.9-4.8,6.6-6.4
			c2.7-1.6,5.7-2.4,9.1-2.4c3.1,0,5.9,0.6,8.4,1.9c2.6,1.2,4.8,2.9,6.6,5c1.9,2.1,3.3,4.5,4.4,7.3c1,2.8,1.6,5.7,1.6,8.8
			c0,3.2-0.5,6.3-1.4,9.1s-2.3,5.2-4.1,7.3c-1.8,2.1-3.8,3.7-6.3,4.9C84.5,136,81.9,136.6,79,136.6z M75.9,128.6
			c2,0,3.8-0.4,5.4-1.3c1.6-0.9,3-2,4.2-3.4c1.2-1.4,2.1-3,2.7-4.8c0.6-1.8,0.9-3.7,0.9-5.6c0-2-0.4-4-1.1-5.8
			c-0.7-1.8-1.7-3.4-2.9-4.8c-1.2-1.4-2.7-2.4-4.4-3.2c-1.7-0.8-3.5-1.2-5.5-1.2c-1.2,0-2.4,0.2-3.7,0.7c-1.3,0.5-2.5,1.1-3.7,1.9
			c-1.1,0.8-2.1,1.7-3,2.8c-0.9,1-1.4,2.2-1.8,3.4v11.7c0.6,1.4,1.3,2.6,2.2,3.8c0.9,1.2,1.9,2.2,3,3.1c1.1,0.9,2.3,1.5,3.6,2
			C73.2,128.3,74.5,128.6,75.9,128.6z"/>
		<linearGradient id="SVGID_5_" gradientUnits="userSpaceOnUse" x1="122.1228" y1="99.3915" x2="122.1228" y2="143.8671">
			<stop  offset="0" style="stop-color:#CCD3D6"/>
			<stop  offset="1" style="stop-color:#E6E6E6"/>
		</linearGradient>
		<path class="st4" d="M106.3,146.2c0.9,0.2,1.7,0.3,2.5,0.4c0.8,0.1,1.5,0.2,2,0.2c0.7,0,1.4-0.2,1.9-0.5c0.5-0.3,1.1-0.9,1.7-1.7
			c0.6-0.8,1.1-1.9,1.7-3.4c0.6-1.4,1.3-3.3,2.1-5.6L99.9,91.2h9.6l13.8,36.2l12.2-36.2h8.8L124.2,146c-0.9,2.6-2.5,4.7-4.7,6.4
			c-2.2,1.7-5.1,2.6-8.6,2.6c-0.7,0-1.4,0-2.1-0.1c-0.7-0.1-1.6-0.3-2.5-0.6V146.2z"/>
	</g>
	<g class="st5">
		<g class="st6">
			<path class="st7" d="M44.3,93.8c0-1.5,0.3-3,0.8-4.4c0.5-1.5,1.3-2.8,2.3-3.9c1-1.2,2.2-2.1,3.7-2.8c1.5-0.7,3.1-1.1,5-1.1
				c2.2,0,4.1,0.5,5.6,1.5c1.6,1,2.7,2.3,3.5,3.9l-1.9,1.2c-0.4-0.8-0.9-1.5-1.4-2c-0.6-0.6-1.2-1-1.8-1.4c-0.6-0.3-1.3-0.6-2-0.7
				c-0.7-0.2-1.4-0.2-2-0.2c-1.5,0-2.8,0.3-3.9,0.9c-1.1,0.6-2.1,1.4-2.9,2.4c-0.8,1-1.4,2.1-1.8,3.3c-0.4,1.2-0.6,2.4-0.6,3.7
				c0,1.4,0.2,2.7,0.7,3.9c0.5,1.3,1.1,2.4,1.9,3.3c0.8,1,1.8,1.7,2.9,2.3c1.1,0.6,2.3,0.9,3.7,0.9c0.7,0,1.4-0.1,2.1-0.3
				c0.7-0.2,1.4-0.5,2.1-0.8c0.7-0.4,1.3-0.9,1.9-1.4c0.6-0.6,1.1-1.3,1.5-2.1l2,1c-0.4,0.9-0.9,1.7-1.7,2.4
				c-0.7,0.7-1.5,1.3-2.4,1.8c-0.9,0.5-1.8,0.9-2.8,1.1c-1,0.3-2,0.4-2.9,0.4c-1.7,0-3.2-0.4-4.7-1.1c-1.4-0.7-2.6-1.7-3.6-2.9
				c-1-1.2-1.8-2.5-2.4-4.1C44.6,96.9,44.3,95.4,44.3,93.8z"/>
			<path class="st7" d="M69.4,106.3V81.6h10.2c1.1,0,2,0.2,2.9,0.7c0.9,0.5,1.7,1,2.3,1.8c0.6,0.7,1.2,1.6,1.5,2.5
				c0.4,0.9,0.6,1.9,0.6,2.8c0,1-0.2,2-0.5,2.9c-0.3,0.9-0.8,1.8-1.5,2.5c-0.6,0.7-1.4,1.3-2.2,1.7c-0.9,0.4-1.8,0.7-2.9,0.7h-8v9.1
				H69.4z M71.9,95h7.9c0.7,0,1.4-0.2,2-0.5c0.6-0.3,1.1-0.7,1.5-1.3c0.4-0.5,0.7-1.1,1-1.8c0.2-0.7,0.3-1.4,0.3-2.1
				c0-0.8-0.1-1.5-0.4-2.2c-0.3-0.7-0.6-1.3-1.1-1.8c-0.5-0.5-1-0.9-1.6-1.2c-0.6-0.3-1.3-0.4-1.9-0.4h-7.7V95z"/>
			<path class="st7" d="M110.1,81.6v24.7h-2.4V94.8H93.1v11.5h-2.4V81.6h2.4v11h14.6v-11H110.1z"/>
		</g>
		<g class="st6">
			<path class="st7" d="M13.3,30.4c-1.5,0-2.8-0.3-3.9-1c-1.1-0.7-2-1.6-2.7-2.7v10.9H2.9V11.8h3.4v3.3C7,14,7.9,13.1,9,12.5
				c1.1-0.7,2.4-1,3.8-1c1.3,0,2.4,0.3,3.5,0.8c1,0.5,2,1.2,2.7,2.1c0.8,0.9,1.4,1.9,1.8,3c0.4,1.1,0.6,2.3,0.6,3.6
				c0,1.3-0.2,2.6-0.6,3.7c-0.4,1.2-1,2.2-1.7,3c-0.7,0.8-1.6,1.5-2.6,2C15.6,30.2,14.5,30.4,13.3,30.4z M12,27.1
				c0.8,0,1.6-0.2,2.2-0.5c0.7-0.3,1.2-0.8,1.7-1.4c0.5-0.6,0.8-1.2,1.1-2c0.3-0.7,0.4-1.5,0.4-2.3c0-0.8-0.1-1.6-0.4-2.4
				c-0.3-0.7-0.7-1.4-1.2-2c-0.5-0.6-1.1-1-1.8-1.3c-0.7-0.3-1.5-0.5-2.3-0.5c-0.5,0-1,0.1-1.5,0.3c-0.5,0.2-1,0.4-1.5,0.8
				c-0.5,0.3-0.9,0.7-1.2,1.1c-0.3,0.4-0.6,0.9-0.7,1.4v4.8c0.2,0.6,0.5,1.1,0.9,1.6c0.4,0.5,0.8,0.9,1.2,1.3
				c0.5,0.3,0.9,0.6,1.5,0.8C10.9,27,11.5,27.1,12,27.1z"/>
			<path class="st7" d="M24.5,34.4c0.3,0.1,0.7,0.1,1,0.2c0.3,0,0.6,0.1,0.8,0.1c0.3,0,0.6-0.1,0.8-0.2c0.2-0.1,0.4-0.4,0.7-0.7
				c0.2-0.3,0.5-0.8,0.7-1.4c0.2-0.6,0.5-1.4,0.9-2.3l-7.5-18.3h3.9l5.7,14.9l5-14.9h3.6l-8.3,22.5c-0.4,1-1,1.9-1.9,2.6
				C29,37.6,27.8,38,26.4,38c-0.3,0-0.6,0-0.9-0.1c-0.3,0-0.6-0.1-1-0.2V34.4z"/>
		</g>
	</g>
	<g id="icon_3_">
		<linearGradient id="SVGID_6_" gradientUnits="userSpaceOnUse" x1="47.3201" y1="111.8358" x2="-2.562089e-02" y2="64.4901">
			<stop  offset="0" style="stop-color:#5A9FD4"/>
			<stop  offset="1" style="stop-color:#306998"/>
		</linearGradient>
		<path class="st8" d="M51.7,103.5c-5.1,0-9.7,2-13.1,5.2V88.4c0-7.3,5.9-13.2,13.2-13.2h6.1L26,43.4C11.3,48.5,1.5,62.2,1.3,79.2
			c-0.1,19.3,12,33.8,29.8,36.9c-3.4,3.5-5.4,8.2-5.4,13.4c0,7,3.8,13.2,9.5,16.5c5.7-3.3,9.5-9.5,9.5-16.5c0-3.6-1-6.9-2.7-9.8
			c2.9,1.7,6.2,2.7,9.8,2.7c7,0,13.2-3.8,16.5-9.5C64.9,107.3,58.8,103.5,51.7,103.5z"/>
		<linearGradient id="SVGID_7_" gradientUnits="userSpaceOnUse" x1="50.415" y1="10.2481" x2="111.1871" y2="71.0202">
			<stop  offset="0" style="stop-color:#FFD43B"/>
			<stop  offset="1" style="stop-color:#FFE873"/>
		</linearGradient>
		<path class="st9" d="M114.7,37.5c-0.1-21.6-16.7-37-38.3-37c-21.7,0-37.3,15.6-37.3,37.3h46.2v3.4H39.1c-3.2,0-6.3,0.4-9.2,1
			l33,33h38.7c7.3,0,13.2-5.9,13.2-13.2V39.5L114.7,37.5z M59.1,29.5c-3.2,0-5.8-2.6-5.8-5.8s2.6-5.8,5.8-5.8s5.8,2.6,5.8,5.8
			S62.3,29.5,59.1,29.5z"/>
		
			<radialGradient id="path1894_1_" cx="-861.555" cy="280.8853" r="27.2538" gradientTransform="matrix(1.749057e-08 -0.2399 -1.0547 -3.791546e-07 330.6047 -46.7668)" gradientUnits="userSpaceOnUse">
			<stop  offset="0" style="stop-color:#B8B8B8;stop-opacity:0.498"/>
			<stop  offset="1" style="stop-color:#7F7F7F;stop-opacity:0"/>
		</radialGradient>
		<path id="path1894_5_" class="st10" d="M68.1,160c0,3.6-15.1,6.5-33.7,6.5S0.6,163.6,0.6,160c0-3.6,15.1-6.5,33.7-6.5
			S68.1,156.3,68.1,160z"/>
	</g>
</g>
</svg>
